<?xml version="1.0" encoding="UTF-8"?>
<svg width="47px" height="43px" viewBox="0 0 47 43" version="1.1" xmlns="http://www.w3.org/2000/svg" xmlns:xlink="http://www.w3.org/1999/xlink">
    <!-- Generator: Sketch 43.2 (39069) - http://www.bohemiancoding.com/sketch -->
    <title>Group</title>
    <desc>Created with Sketch.</desc>
    <defs></defs>
    <g id="Page-1" stroke="none" stroke-width="1" fill="none" fill-rule="evenodd">
        <g id="Group" transform="translate(-4.000000, -6.000000)">
            <g id="ic_business_center_black_24px">
                <path d="M0,0 L55,0 L55,55 L0,55 L0,0 Z M22.9166667,11.4583333 L32.0833333,11.4583333 L32.0833333,16.0416667 L22.9166667,16.0416667 L22.9166667,11.4583333 Z M22.9166667,11.4583333 L32.0833333,11.4583333 L32.0833333,16.0416667 L22.9166667,16.0416667 L22.9166667,11.4583333 Z" id="Shape"></path>
                <path d="M22.9166667,36.6666667 L22.9166667,34.375 L6.89791667,34.375 L6.875,43.5416667 C6.875,46.0854167 8.91458333,48.125 11.4583333,48.125 L43.5416667,48.125 C46.0854167,48.125 48.125,46.0854167 48.125,43.5416667 L48.125,34.375 L32.0833333,34.375 L32.0833333,36.6666667 L22.9166667,36.6666667 Z M45.8333333,16.0416667 L36.64375,16.0416667 L36.64375,11.4583333 L32.0604167,6.875 L22.89375,6.875 L18.3104167,11.4583333 L18.3104167,16.0416667 L9.16666667,16.0416667 C6.64583333,16.0416667 4.58333333,18.1041667 4.58333333,20.625 L4.58333333,27.5 C4.58333333,30.04375 6.62291667,32.0833333 9.16666667,32.0833333 L22.9166667,32.0833333 L22.9166667,27.5 L32.0833333,27.5 L32.0833333,32.0833333 L45.8333333,32.0833333 C48.3541667,32.0833333 50.4166667,30.0208333 50.4166667,27.5 L50.4166667,20.625 C50.4166667,18.1041667 48.3541667,16.0416667 45.8333333,16.0416667 Z M32.0833333,16.0416667 L22.9166667,16.0416667 L22.9166667,11.4583333 L32.0833333,11.4583333 L32.0833333,16.0416667 Z" id="Shape" fill="#6082C7" fill-rule="nonzero"></path>
            </g>
            <path d="M9.17580696,34.3041646 L9.17580696,44.046023 C9.17580696,45.1451693 10.0727079,46.0358514 11.166469,46.0354221 L44.210837,46.022453 C45.3102493,46.0220215 46.201499,45.1216749 46.201499,44.0206743 L46.201499,34.3041646 L32.1479336,34.4250258 L32.1479336,36.6483749 L22.9603589,36.678856 L22.9575234,34.3350002 L9.17580696,34.3041646 Z" id="Path-2" fill="#B1CBFF"></path>
            <path d="M9.0093951,17.5119629 C7.34735208,17.5119629 6,18.8518906 6,20.521851 L6,27.4794451 C6,29.1417604 7.33405674,30.4893332 9.00658591,30.4893332 L45.9934141,30.4893332 C47.6539056,30.4893332 49,29.1494055 49,27.4794451 L49,20.521851 C49,18.8595357 47.6598747,17.5119629 45.9984459,17.5119629 L33.8988618,17.5119629 L33.8988618,22.3371547 L21.0498727,22.3371547 L21.0498727,17.5119629 L9.0093951,17.5119629 Z" id="Path-2" fill="#6082C7" transform="translate(27.500000, 24.000648) scale(-1, -1) translate(-27.500000, -24.000648) "></path>
            <polygon id="Rectangle" fill="#6082C7" points="25 29.3117384 30.1957993 29.3117384 30.1957993 34.7531058 25 34.7531058"></polygon>
        </g>
    </g>
</svg>