<?xml version="1.0" encoding="UTF-8"?>
<svg width="500px" height="550px" viewBox="0 0 500 550" version="1.1" xmlns="http://www.w3.org/2000/svg" xmlns:xlink="http://www.w3.org/1999/xlink" style="background: #FFFFFF;">
    <!-- Generator: Sketch 43.2 (39069) - http://www.bohemiancoding.com/sketch -->
    <title>Artboard 4</title>
    <desc>Created with Sketch.</desc>
    <defs>
        <rect id="path-1" x="0" y="0" width="418.982433" height="288.924613" rx="2"></rect>
    </defs>
    <g id="Page-1" stroke="none" stroke-width="1" fill="none" fill-rule="evenodd">
        <g id="Artboard-4">
            <g id="Group-5" transform="translate(41.000000, 131.000000)">
                <g id="Group-16">
                    <g id="Group-4">
                        <g id="Group-17">
                            <g id="Group-6">
                                <g id="Group-3">
                                    <g id="Group-2">
                                        <g id="Rectangle">
                                            <use fill="#F2F2F2" fill-rule="evenodd" xlink:href="#path-1"></use>
                                            <rect stroke="#DDDBDB" stroke-width="1" x="0.5" y="0.5" width="417.982433" height="287.924613" rx="2"></rect>
                                        </g>
                                        <rect id="Rectangle-3" fill="#144278" x="80.9951506" y="157.123734" width="259.428076" height="45.4590997"></rect>
                                        <rect id="Rectangle-5" fill="#FFFFFF" x="81.2996437" y="103.732174" width="256.687639" height="41.4928695"></rect>
                                        <path d="M169.505593,66.5816876 C168.796465,66.628039 168.280042,66.8443427 167.95631,67.230605 C167.632578,67.6168673 167.470714,68.1730766 167.470714,68.8992497 L167.470714,69.432289 L169.436222,69.432289 C170.299508,69.432289 170.731145,69.7953701 170.731145,70.5215432 C170.731145,71.2477163 170.299508,71.6107974 169.436222,71.6107974 L167.470714,71.6107974 L167.470714,79.5136844 C167.470714,79.9617486 167.335828,80.3016543 167.066051,80.5334117 C166.796274,80.7651691 166.453277,80.881046 166.03705,80.881046 C165.620822,80.881046 165.273972,80.7651691 164.996487,80.5334117 C164.719002,80.3016543 164.580262,79.9617486 164.580262,79.5136844 L164.580262,71.6107974 L163.424081,71.6107974 C162.560794,71.6107974 162.129158,71.2477163 162.129158,70.5215432 C162.129158,69.7953701 162.560794,69.432289 163.424081,69.432289 L164.580262,69.432289 L164.580262,69.2700597 C164.580262,67.8177134 164.961798,66.6782568 165.724881,65.8516555 C166.487964,65.0250542 167.563202,64.5576838 168.950626,64.4495304 L169.55184,64.4031791 C170.168473,64.3568277 170.603963,64.4224913 170.858325,64.6001719 C171.112686,64.7778526 171.239864,65.0520947 171.239864,65.4229065 C171.239864,66.0872776 170.862182,66.4580839 170.106807,66.5353363 L169.505593,66.5816876 Z M176.858904,69.1541815 C178.431318,69.1541815 179.599049,69.5443006 180.362132,70.3245504 C181.125216,71.1048003 181.506752,72.2906077 181.506752,73.8820083 L181.506752,79.53686 C181.506752,79.9540232 181.383427,80.2823413 181.136774,80.5218239 C180.890121,80.7613065 180.550978,80.881046 180.119334,80.881046 C179.718523,80.881046 179.390942,80.7574439 179.136581,80.5102361 C178.88222,80.2630282 178.755041,79.9385728 178.755041,79.53686 L178.755041,79.0269963 C178.492972,79.6295655 178.080605,80.1007984 177.517927,80.4407092 C176.95525,80.78062 176.303941,80.9505729 175.563981,80.9505729 C174.808606,80.9505729 174.122612,80.7960703 173.505979,80.4870605 C172.889346,80.1780506 172.403755,79.7531685 172.049191,79.2124013 C171.694627,78.6716341 171.517348,78.0690739 171.517348,77.4047028 C171.517348,76.5703763 171.729312,75.9137402 172.153247,75.434775 C172.577182,74.9558097 173.26703,74.6081789 174.222811,74.391872 C175.178592,74.1755651 176.496626,74.0674133 178.17695,74.0674133 L178.755041,74.0674133 L178.755041,73.534374 C178.755041,72.7772999 178.593177,72.2249531 178.269445,71.8773171 C177.945713,71.529681 177.421582,71.3558656 176.697039,71.3558656 C176.24998,71.3558656 175.79522,71.4215292 175.332745,71.5528584 C174.87027,71.6841875 174.323017,71.8734532 173.690968,72.1206611 C173.290157,72.3215175 172.99726,72.4219442 172.81227,72.4219442 C172.534786,72.4219442 172.307406,72.3215175 172.130124,72.1206611 C171.952842,71.9198047 171.864202,71.6571503 171.864202,71.33269 C171.864202,71.0700316 171.929718,70.8421403 172.060753,70.6490091 C172.191787,70.455878 172.411459,70.2743374 172.719776,70.104382 C173.25933,69.8108227 173.902931,69.5790688 174.650598,69.4091134 C175.398266,69.239158 176.13436,69.1541815 176.858904,69.1541815 Z M176.142072,78.864767 C176.912863,78.864767 177.541048,78.6059751 178.026647,78.0883836 C178.512245,77.5707922 178.755041,76.9025684 178.755041,76.0836924 L178.755041,75.5970043 L178.338816,75.5970043 C177.305955,75.5970043 176.504345,75.6433551 175.933959,75.7360581 C175.363574,75.828761 174.95506,75.9909887 174.708407,76.2227461 C174.461754,76.4545035 174.338429,76.7712338 174.338429,77.1729466 C174.338429,77.6673623 174.511855,78.0729316 174.858711,78.3896667 C175.205567,78.7064018 175.63335,78.864767 176.142072,78.864767 Z M189.461277,80.9505729 C188.335922,80.9505729 187.34547,80.7110939 186.489892,80.2321286 C185.634314,79.7531634 184.975297,79.0733519 184.512822,78.1926739 C184.050348,77.3119959 183.819114,76.2845536 183.819114,75.1103163 C183.819114,73.9360789 184.061909,72.8970489 184.547508,71.9931952 C185.033106,71.0893414 185.715246,70.3902172 186.593948,69.8958014 C187.47265,69.4013857 188.482371,69.1541815 189.623142,69.1541815 C190.22436,69.1541815 190.829422,69.239158 191.438347,69.4091134 C192.047272,69.5790688 192.582963,69.8108227 193.045438,70.104382 C193.538745,70.4288424 193.785394,70.8382742 193.785394,71.33269 C193.785394,71.6726008 193.704462,71.9468429 193.542596,72.1554245 C193.38073,72.3640062 193.168766,72.4682954 192.906696,72.4682954 C192.737122,72.4682954 192.559843,72.4296698 192.374853,72.3524173 C192.189863,72.2751649 192.004876,72.1824633 191.819886,72.0743099 C191.480738,71.8734535 191.157011,71.7150883 190.848694,71.5992096 C190.540378,71.4833309 190.185819,71.4253925 189.785008,71.4253925 C188.829227,71.4253925 188.093132,71.7382602 187.576702,72.3640051 C187.060272,72.98975 186.802061,73.8897277 186.802061,75.063965 C186.802061,76.2227519 187.060272,77.1150044 187.576702,77.7407493 C188.093132,78.3664942 188.829227,78.679362 189.785008,78.679362 C190.170403,78.679362 190.5134,78.6214235 190.814009,78.5055448 C191.114617,78.3896661 191.449907,78.231301 191.819886,78.0304446 C192.051124,77.8913902 192.251526,77.7871009 192.4211,77.7175737 C192.590675,77.6480465 192.760246,77.6132834 192.92982,77.6132834 C193.176473,77.6132834 193.384584,77.7214352 193.554158,77.9377421 C193.723732,78.154049 193.808518,78.4244285 193.808518,78.7488888 C193.808518,79.0115472 193.750709,79.2394385 193.635091,79.4325697 C193.519472,79.6257008 193.330631,79.7995162 193.068562,79.9540212 C192.590671,80.263031 192.03571,80.5063726 191.403661,80.6840532 C190.771612,80.8617339 190.124157,80.9505729 189.461277,80.9505729 Z M204.676619,77.6596346 C204.938688,77.6596346 205.150653,77.7600613 205.312519,77.9609177 C205.474385,78.1617741 205.555317,78.4321537 205.555317,78.7720645 C205.555317,79.2510297 205.270128,79.6527365 204.699743,79.9771968 C204.175605,80.2707561 203.582105,80.5063726 202.919224,80.6840532 C202.256344,80.8617339 201.624304,80.9505729 201.023087,80.9505729 C199.20402,80.9505729 197.762662,80.4252641 196.69897,79.3746306 C195.635278,78.3239972 195.10344,76.887123 195.10344,75.063965 C195.10344,73.9051782 195.334674,72.8777359 195.797149,71.9816074 C196.259624,71.0854789 196.910933,70.3902172 197.751095,69.8958014 C198.591257,69.4013857 199.54317,69.1541815 200.606862,69.1541815 C201.624306,69.1541815 202.510703,69.3782103 203.266078,69.8262746 C204.021454,70.2743388 204.607246,70.9077995 205.023474,71.7266755 C205.439701,72.5455516 205.647811,73.5111928 205.647811,74.6236282 C205.647811,75.2879994 205.354915,75.6201799 204.769114,75.6201799 L197.947646,75.6201799 C198.040141,76.6862639 198.340745,77.4703645 198.849467,77.9725055 C199.358189,78.4746465 200.098138,78.7257132 201.069334,78.7257132 C201.562641,78.7257132 201.998131,78.6639122 202.375819,78.5403083 C202.753507,78.4167043 203.181289,78.2467515 203.65918,78.0304446 C204.121655,77.7832367 204.460798,77.6596346 204.676619,77.6596346 Z M200.676233,71.1936362 C199.890026,71.1936362 199.26184,71.4408404 198.791658,71.9352561 C198.321475,72.4296719 198.040141,73.1403838 197.947646,74.0674133 L203.173584,74.0674133 C203.142752,73.1249333 202.911518,72.4103588 202.479875,71.9236683 C202.048232,71.4369778 201.447024,71.1936362 200.676233,71.1936362 Z M214.504158,69.1541815 C215.490771,69.1541815 216.361752,69.3936606 217.117127,69.8726258 C217.872502,70.3515911 218.462149,71.0314025 218.886084,71.9120805 C219.310019,72.7927585 219.521983,73.8202008 219.521983,74.9944382 C219.521983,76.1686755 219.310019,77.2077055 218.886084,78.1115593 C218.462149,79.015413 217.868648,79.7145373 217.105565,80.208953 C216.342482,80.7033687 215.475355,80.9505729 214.504158,80.9505729 C213.687119,80.9505729 212.958732,80.7728949 212.318976,80.4175336 C211.679219,80.0621723 211.189774,79.567764 210.850626,78.9342938 L210.850626,79.5136844 C210.850626,79.9308476 210.719593,80.2630282 210.457524,80.5102361 C210.195455,80.7574439 209.848604,80.881046 209.416961,80.881046 C208.985318,80.881046 208.642321,80.7574439 208.38796,80.5102361 C208.133599,80.2630282 208.006421,79.9308476 208.006421,79.5136844 L208.006421,65.6546627 C208.006421,65.2529499 208.141307,64.9284945 208.411084,64.6812866 C208.680861,64.4340787 209.031566,64.3104767 209.463209,64.3104767 C209.894852,64.3104767 210.241703,64.4263536 210.503772,64.658111 C210.765841,64.8898684 210.896873,65.2065987 210.896873,65.6083115 L210.896873,71.0777581 C211.236021,70.4597385 211.721612,69.984643 212.353661,69.6524574 C212.98571,69.3202718 213.702535,69.1541815 214.504158,69.1541815 Z M213.741078,78.7025376 C214.650612,78.7025376 215.359729,78.3780821 215.868451,77.7291615 C216.377174,77.0802409 216.631531,76.1686755 216.631531,74.9944382 C216.631531,73.8356513 216.381028,72.9472614 215.880013,72.3292417 C215.378999,71.711222 214.666028,71.4022168 213.741078,71.4022168 C212.816129,71.4022168 212.103158,71.7150846 211.602144,72.3408295 C211.101129,72.9665744 210.850626,73.866552 210.850626,75.0407894 C210.850626,76.2150268 211.101129,77.118867 211.602144,77.7523371 C212.103158,78.3858073 212.816129,78.7025376 213.741078,78.7025376 Z M227.060284,80.9505729 C225.904097,80.9505729 224.890522,80.7110939 224.019528,80.2321286 C223.148534,79.7531634 222.474101,79.0656268 221.996211,78.1694983 C221.51832,77.2733698 221.279379,76.2304773 221.279379,75.0407894 C221.279379,73.8511016 221.51832,72.8120716 221.996211,71.9236683 C222.474101,71.035265 223.148534,70.3515911 224.019528,69.8726258 C224.890522,69.3936606 225.904097,69.1541815 227.060284,69.1541815 C228.21647,69.1541815 229.230046,69.3936606 230.10104,69.8726258 C230.972034,70.3515911 231.642612,71.035265 232.112795,71.9236683 C232.582977,72.8120716 232.818065,73.8511016 232.818065,75.0407894 C232.818065,76.2304773 232.582977,77.2733698 232.112795,78.1694983 C231.642612,79.0656268 230.972034,79.7531634 230.10104,80.2321286 C229.230046,80.7110939 228.21647,80.9505729 227.060284,80.9505729 Z M227.03716,78.7025376 C227.977525,78.7025376 228.69435,78.3935324 229.187657,77.7755127 C229.680963,77.1574931 229.927613,76.2459277 229.927613,75.0407894 C229.927613,73.8511016 229.680963,72.9433988 229.187657,72.3176539 C228.69435,71.691909 227.985233,71.3790412 227.060284,71.3790412 C226.135334,71.3790412 225.422363,71.691909 224.921349,72.3176539 C224.420335,72.9433988 224.169831,73.8511016 224.169831,75.0407894 C224.169831,76.2459277 224.416481,77.1574931 224.909787,77.7755127 C225.403093,78.3935324 226.112211,78.7025376 227.03716,78.7025376 Z M240.356365,80.9505729 C239.200179,80.9505729 238.186603,80.7110939 237.315609,80.2321286 C236.444615,79.7531634 235.770183,79.0656268 235.292293,78.1694983 C234.814402,77.2733698 234.57546,76.2304773 234.57546,75.0407894 C234.57546,73.8511016 234.814402,72.8120716 235.292293,71.9236683 C235.770183,71.035265 236.444615,70.3515911 237.315609,69.8726258 C238.186603,69.3936606 239.200179,69.1541815 240.356365,69.1541815 C241.512552,69.1541815 242.526127,69.3936606 243.397121,69.8726258 C244.268115,70.3515911 244.938694,71.035265 245.408876,71.9236683 C245.879059,72.8120716 246.114147,73.8511016 246.114147,75.0407894 C246.114147,76.2304773 245.879059,77.2733698 245.408876,78.1694983 C244.938694,79.0656268 244.268115,79.7531634 243.397121,80.2321286 C242.526127,80.7110939 241.512552,80.9505729 240.356365,80.9505729 Z M240.333242,78.7025376 C241.273607,78.7025376 241.990432,78.3935324 242.483738,77.7755127 C242.977045,77.1574931 243.223694,76.2459277 243.223694,75.0407894 C243.223694,73.8511016 242.977045,72.9433988 242.483738,72.3176539 C241.990432,71.691909 241.281315,71.3790412 240.356365,71.3790412 C239.431416,71.3790412 238.718445,71.691909 238.21743,72.3176539 C237.716416,72.9433988 237.465913,73.8511016 237.465913,75.0407894 C237.465913,76.2459277 237.712562,77.1574931 238.205869,77.7755127 C238.699175,78.3935324 239.408292,78.7025376 240.333242,78.7025376 Z M258.554655,78.5171326 C258.862971,78.810692 259.017127,79.1428726 259.017127,79.5136844 C259.017127,79.8690457 258.889948,80.185776 258.635587,80.4638848 C258.381226,80.7419937 258.084476,80.881046 257.745328,80.881046 C257.40618,80.881046 257.09016,80.7419937 256.797259,80.4638848 L251.386332,75.5506531 L251.386332,79.5136844 C251.386332,79.9617486 251.247592,80.3016543 250.970107,80.5334117 C250.692622,80.7651691 250.345771,80.881046 249.929544,80.881046 C249.513317,80.881046 249.17032,80.7651691 248.900543,80.5334117 C248.630766,80.3016543 248.49588,79.9617486 248.49588,79.5136844 L248.49588,65.6778383 C248.49588,65.2297741 248.630766,64.8898684 248.900543,64.658111 C249.17032,64.4263536 249.513317,64.3104767 249.929544,64.3104767 C250.345771,64.3104767 250.692622,64.4263536 250.970107,64.658111 C251.247592,64.8898684 251.386332,65.2297741 251.386332,65.6778383 L251.386332,74.391872 L256.334787,69.6408696 C256.612272,69.3627607 256.928291,69.2237084 257.282855,69.2237084 C257.637419,69.2237084 257.945731,69.3550356 258.2078,69.617694 C258.469869,69.8803523 258.600902,70.1893575 258.600902,70.5447188 C258.600902,70.9000801 258.454454,71.2245356 258.161553,71.5180949 L254.531145,74.9017357 L258.554655,78.5171326 Z" id="facebook" fill="#236CC2"></path>
                                        <rect id="Rectangle-2" fill="#246DC1" x="80.2996437" y="156.733923" width="256.687639" height="42.1030588"></rect>
                                        <path d="M190.489361,185.795172 C190.203243,185.795172 189.981259,185.716067 189.823401,185.557854 C189.665543,185.399641 189.586615,185.182101 189.586615,184.905228 L189.586615,176.213443 C189.586615,175.926682 189.672942,175.696782 189.845599,175.523737 C190.018257,175.350691 190.247641,175.26417 190.533758,175.26417 C190.829742,175.26417 191.064059,175.350691 191.236716,175.523737 C191.409374,175.696782 191.495701,175.926682 191.495701,176.213443 L191.495701,184.222938 L195.654253,184.222938 C196.24622,184.222938 196.5422,184.484974 196.5422,185.009055 C196.5422,185.533136 196.24622,185.795172 195.654253,185.795172 L190.489361,185.795172 Z M200.89314,185.913831 C200.153181,185.913831 199.504493,185.760565 198.947056,185.454027 C198.38962,185.147489 197.957984,184.707466 197.652134,184.133944 C197.346284,183.560421 197.193361,182.89297 197.193361,182.13157 C197.193361,181.37017 197.346284,180.70519 197.652134,180.136612 C197.957984,179.568034 198.38962,179.130483 198.947056,178.823945 C199.504493,178.517407 200.153181,178.364141 200.89314,178.364141 C201.6331,178.364141 202.281788,178.517407 202.839224,178.823945 C203.39666,179.130483 203.82583,179.568034 204.126747,180.136612 C204.427664,180.70519 204.57812,181.37017 204.57812,182.13157 C204.57812,182.89297 204.427664,183.560421 204.126747,184.133944 C203.82583,184.707466 203.39666,185.147489 202.839224,185.454027 C202.281788,185.760565 201.6331,185.913831 200.89314,185.913831 Z M200.878341,184.475089 C201.480175,184.475089 201.938943,184.277325 202.254659,183.881793 C202.570375,183.48626 202.728231,182.902858 202.728231,182.13157 C202.728231,181.37017 202.570375,180.78924 202.254659,180.388763 C201.938943,179.988286 201.485108,179.788051 200.89314,179.788051 C200.301173,179.788051 199.844871,179.988286 199.524222,180.388763 C199.203573,180.78924 199.043251,181.37017 199.043251,182.13157 C199.043251,182.902858 199.201106,183.48626 199.516822,183.881793 C199.832538,184.277325 200.286373,184.475089 200.878341,184.475089 Z M212.229264,178.393806 C212.505515,178.393806 212.7275,178.472911 212.895224,178.631124 C213.062948,178.789337 213.146809,179.001933 213.146809,179.268917 L213.146809,185.127714 C213.146809,186.26487 212.831098,187.125141 212.199666,187.708551 C211.568233,188.291962 210.635898,188.583663 209.402632,188.583663 C208.327225,188.583663 207.42942,188.380955 206.709193,187.975535 C206.344146,187.757992 206.161626,187.495955 206.161626,187.189418 C206.161626,186.971875 206.213422,186.798832 206.317017,186.670284 C206.420611,186.541735 206.556268,186.477462 206.723992,186.477462 C206.812787,186.477462 206.921313,186.499711 207.049573,186.544208 C207.177833,186.588706 207.311023,186.640618 207.449149,186.699948 C207.80433,186.848273 208.122507,186.961987 208.403692,187.041094 C208.684877,187.1202 209.007988,187.159753 209.373034,187.159753 C210.665497,187.159753 211.311719,186.52691 211.311719,185.261206 L211.311719,184.311932 C211.094664,184.717353 210.778952,185.031303 210.364575,185.25379 C209.950198,185.476277 209.476631,185.587519 208.94386,185.587519 C208.312428,185.587519 207.752533,185.436724 207.26416,185.13513 C206.775787,184.833537 206.39348,184.410818 206.117229,183.86696 C205.840977,183.323103 205.702853,182.695205 205.702853,181.983246 C205.702853,181.271287 205.83851,180.640917 206.109829,180.092115 C206.381147,179.543314 206.763454,179.118123 207.256761,178.816529 C207.750067,178.514935 208.312428,178.364141 208.94386,178.364141 C209.476631,178.364141 209.950198,178.475383 210.364575,178.69787 C210.778952,178.920357 211.094664,179.234306 211.311719,179.639727 L211.311719,179.254085 C211.311719,178.996989 211.395579,178.789337 211.563304,178.631124 C211.731028,178.472911 211.953012,178.393806 212.229264,178.393806 Z M209.432231,184.148776 C210.024198,184.148776 210.485433,183.955957 210.815948,183.570312 C211.146463,183.184668 211.311719,182.655651 211.311719,181.983246 C211.311719,181.300952 211.146463,180.766991 210.815948,180.381347 C210.485433,179.995703 210.024198,179.802883 209.432231,179.802883 C208.850129,179.802883 208.391361,179.995703 208.055913,180.381347 C207.720465,180.766991 207.552743,181.300952 207.552743,181.983246 C207.552743,182.655651 207.720465,183.184668 208.055913,183.570312 C208.391361,183.955957 208.850129,184.148776 209.432231,184.148776 Z M220.17639,185.884167 C219.890272,185.884167 219.660888,185.795173 219.488231,185.617183 C219.315573,185.439194 219.229246,185.206822 219.229246,184.920061 L219.229246,176.213443 C219.229246,175.926682 219.315573,175.696782 219.488231,175.523737 C219.660888,175.350691 219.890272,175.26417 220.17639,175.26417 C220.472373,175.26417 220.70669,175.350691 220.879348,175.523737 C221.052005,175.696782 221.138332,175.926682 221.138332,176.213443 L221.138332,184.920061 C221.138332,185.206822 221.052005,185.439194 220.879348,185.617183 C220.70669,185.795173 220.472373,185.884167 220.17639,185.884167 Z M227.427957,178.364141 C228.296176,178.364141 228.942398,178.611345 229.366641,179.105761 C229.790885,179.600176 230.003003,180.346733 230.003003,181.345453 L230.003003,184.994223 C230.003003,185.271095 229.921609,185.488635 229.758818,185.646848 C229.596027,185.805061 229.371576,185.884167 229.085458,185.884167 C228.79934,185.884167 228.572423,185.805061 228.404699,185.646848 C228.236975,185.488635 228.153114,185.271095 228.153114,184.994223 L228.153114,181.44928 C228.153114,180.885646 228.047054,180.475287 227.834933,180.218191 C227.622811,179.961094 227.289834,179.832548 226.835992,179.832548 C226.303221,179.832548 225.876518,180.000647 225.555869,180.33685 C225.23522,180.673052 225.074897,181.122964 225.074897,181.686598 L225.074897,184.994223 C225.074897,185.271095 224.991037,185.488635 224.823312,185.646848 C224.655588,185.805061 224.428671,185.884167 224.142553,185.884167 C223.856435,185.884167 223.631984,185.805061 223.469193,185.646848 C223.306402,185.488635 223.225008,185.271095 223.225008,184.994223 L223.225008,179.254085 C223.225008,178.996989 223.308869,178.789337 223.476593,178.631124 C223.644317,178.472911 223.871234,178.393806 224.157352,178.393806 C224.413871,178.393806 224.623523,178.470439 224.786315,178.623708 C224.949106,178.776977 225.0305,178.977212 225.0305,179.22442 L225.0305,179.624895 C225.277153,179.219474 225.607664,178.907997 226.022041,178.690454 C226.436418,178.472911 226.905052,178.364141 227.427957,178.364141 Z" id="Log-In" fill="#FFFFFF"></path>
                                    </g>
                                    <g id="Group" transform="translate(304.000000, 171.000000)">
                                        <path d="M1.69660824,0.350886939 C0.614705367,0.115325054 0.0405013725,0.762453148 0.414369271,1.79706713 L8.16328337,23.2408308 C8.53702521,24.2750959 9.42384029,24.4282988 10.1349034,23.5937427 L24.2241812,7.05752668 C24.939335,6.21816939 24.6465144,5.34775245 23.5601233,5.11121334 L1.69660824,0.350886939 Z" id="Path-8" fill="#6EA7E9"></path>
                                        <path d="M14.2093471,18.476457 L18.2392422,22.042788 C19.0649958,22.7735542 20.3379515,22.6979662 21.0754677,21.8817054 L24.2387937,18.3806314 C24.9794442,17.5609017 24.9093116,16.3099589 24.0745092,15.5798916 L19.7344014,11.7842984 L14.2093471,18.476457 Z" id="Path-9" fill="#6EA7E8"></path>
                                    </g>
                                </g>
                            </g>
                        </g>
                    </g>
                </g>
            </g>
        </g>
    </g>
</svg>