<?xml version="1.0" encoding="UTF-8"?>
<svg width="48px" height="50px" viewBox="0 0 48 50" version="1.1" xmlns="http://www.w3.org/2000/svg" xmlns:xlink="http://www.w3.org/1999/xlink">
    <!-- Generator: Sketch 43.2 (39069) - http://www.bohemiancoding.com/sketch -->
    <title>Group 2</title>
    <desc>Created with Sketch.</desc>
    <defs></defs>
    <g id="Page-1" stroke="none" stroke-width="1" fill="none" fill-rule="evenodd">
        <g id="Group-2" transform="translate(-5.000000, -4.000000)">
            <g id="ic_settings_black_24px">
                <polygon id="Shape" points="0 0 58 0 58 58 0 58"></polygon>
                <path d="M46.9558333,31.3683333 C47.0525,30.595 47.125,29.8216667 47.125,29 C47.125,28.1783333 47.0525,27.405 46.9558333,26.6316667 L52.055,22.6441667 C52.5141667,22.2816667 52.635,21.6291667 52.345,21.0975 L47.5116667,12.7358333 C47.2216667,12.2041667 46.5691667,12.0108333 46.0375,12.2041667 L40.02,14.6208333 C38.7633333,13.6541667 37.41,12.8566667 35.9358333,12.2525 L35.0175,5.84833333 C34.945,5.26833333 34.4375,4.83333333 33.8333333,4.83333333 L24.1666667,4.83333333 C23.5625,4.83333333 23.055,5.26833333 22.9825,5.84833333 L22.0641667,12.2525 C20.59,12.8566667 19.2366667,13.6783333 17.98,14.6208333 L11.9625,12.2041667 C11.4066667,11.9866667 10.7783333,12.2041667 10.4883333,12.7358333 L5.655,21.0975 C5.34083333,21.6291667 5.48583333,22.2816667 5.945,22.6441667 L11.0441667,26.6316667 C10.9475,27.405 10.875,28.2025 10.875,29 C10.875,29.7975 10.9475,30.595 11.0441667,31.3683333 L5.945,35.3558333 C5.48583333,35.7183333 5.365,36.3708333 5.655,36.9025 L10.4883333,45.2641667 C10.7783333,45.7958333 11.4308333,45.9891667 11.9625,45.7958333 L17.98,43.3791667 C19.2366667,44.3458333 20.59,45.1433333 22.0641667,45.7475 L22.9825,52.1516667 C23.055,52.7316667 23.5625,53.1666667 24.1666667,53.1666667 L33.8333333,53.1666667 C34.4375,53.1666667 34.945,52.7316667 35.0175,52.1516667 L35.9358333,45.7475 C37.41,45.1433333 38.7633333,44.3216667 40.02,43.3791667 L46.0375,45.7958333 C46.5933333,46.0133333 47.2216667,45.7958333 47.5116667,45.2641667 L52.345,36.9025 C52.635,36.3708333 52.5141667,35.7183333 52.055,35.3558333 L46.9558333,31.3683333 L46.9558333,31.3683333 Z M29,37.4583333 C24.3358333,37.4583333 20.5416667,33.6641667 20.5416667,29 C20.5416667,24.3358333 24.3358333,20.5416667 29,20.5416667 C33.6641667,20.5416667 37.4583333,24.3358333 37.4583333,29 C37.4583333,33.6641667 33.6641667,37.4583333 29,37.4583333 Z" id="Shape" fill="#6082C7" fill-rule="nonzero"></path>
            </g>
            <path d="M29,44 C20.7157288,44 14,37.2842712 14,29 C14,20.7157288 20.7157288,14 29,14 C37.2842712,14 44,20.7157288 44,29 C44,37.2842712 37.2842712,44 29,44 Z M29,40 C35.0751322,40 40,35.0751322 40,29 C40,22.9248678 35.0751322,18 29,18 C22.9248678,18 18,22.9248678 18,29 C18,35.0751322 22.9248678,40 29,40 Z" id="Combined-Shape" fill="#B1CBFF"></path>
        </g>
    </g>
</svg>